<svg xmlns="http://www.w3.org/2000/svg" xmlns:xlink="http://www.w3.org/1999/xlink" version="1.1" width="256" height="256" viewBox="0 0 256 256" xml:space="preserve">

<defs>
</defs>
<g style="stroke: none; stroke-width: 0; stroke-dasharray: none; stroke-linecap: butt; stroke-linejoin: miter; stroke-miterlimit: 10; fill: none; fill-rule: nonzero; opacity: 1;" transform="translate(1.4065934065934016 1.4065934065934016) scale(2.81 2.81)" >
	<path d="M 89 33.853 H 77.802 v -4.172 l 9.227 -3.702 c 0.37 -0.148 0.616 -0.501 0.628 -0.899 c 0.011 -0.398 -0.215 -0.765 -0.575 -0.934 l -9.854 -4.627 c -0.31 -0.146 -0.673 -0.123 -0.961 0.061 c -0.289 0.184 -0.464 0.502 -0.464 0.844 v 8.558 c 0 0.015 0 0.03 0 0.045 v 4.825 H 64.604 c -0.553 0 -1 0.448 -1 1 v 7.463 c 0 0.552 0.447 1 1 1 h 2.178 v 9.912 H 55.021 V 31.404 h 2.758 c 0.404 0 0.77 -0.244 0.924 -0.617 c 0.155 -0.374 0.069 -0.804 -0.217 -1.09 L 46 17.211 v -4.758 l 9.227 -3.702 c 0.37 -0.148 0.616 -0.501 0.628 -0.899 c 0.011 -0.398 -0.215 -0.765 -0.575 -0.934 l -9.854 -4.626 c -0.31 -0.146 -0.672 -0.123 -0.961 0.061 C 44.175 2.536 44 2.854 44 3.197 v 8.557 c 0 0.016 0 0.031 0 0.046 v 5.411 L 31.514 29.697 c -0.286 0.286 -0.372 0.716 -0.217 1.09 c 0.155 0.374 0.52 0.617 0.924 0.617 h 2.758 v 21.824 H 23.218 v -9.912 h 2.177 c 0.552 0 1 -0.448 1 -1 v -7.463 c 0 -0.552 -0.448 -1 -1 -1 H 14.198 v -4.172 l 9.227 -3.702 c 0.369 -0.148 0.616 -0.501 0.627 -0.899 c 0.012 -0.398 -0.214 -0.765 -0.575 -0.934 l -9.854 -4.627 c -0.309 -0.146 -0.672 -0.123 -0.961 0.061 s -0.464 0.502 -0.464 0.844 v 8.558 c 0 0.015 0 0.03 0 0.045 v 4.825 H 1 c -0.552 0 -1 0.448 -1 1 v 7.463 c 0 0.552 0.448 1 1 1 h 2.178 v 43.488 c 0 0.553 0.448 1 1 1 h 31.847 c 0.552 0 1 -0.447 1 -1 V 74.308 c 0 -4.397 3.578 -7.976 7.976 -7.976 c 4.397 0 7.976 3.578 7.976 7.976 v 12.496 c 0 0.553 0.447 1 1 1 h 31.847 c 0.553 0 1 -0.447 1 -1 V 43.316 H 89 c 0.553 0 1 -0.448 1 -1 v -7.463 C 90 34.3 89.553 33.853 89 33.853 z M 77.802 21.998 l 6.349 2.981 l -6.349 2.547 V 21.998 z M 46 4.771 l 6.349 2.98 L 46 10.298 V 4.771 z M 14.198 21.998 l 6.348 2.981 l -6.348 2.547 V 21.998 z M 45 19.04 l 10.364 10.364 h -1.344 H 35.979 h -1.344 L 45 19.04 z M 2 35.853 h 22.396 v 5.463 h -2.177 H 4.178 H 2 V 35.853 z M 84.822 85.804 H 54.976 V 74.308 c 0 -5.501 -4.475 -9.976 -9.976 -9.976 c -5.5 0 -9.976 4.475 -9.976 9.976 v 11.496 H 5.178 V 43.316 h 16.041 v 10.912 c 0 0.553 0.448 1 1 1 h 13.761 c 0.552 0 1 -0.447 1 -1 V 31.404 h 16.041 v 22.824 c 0 0.553 0.447 1 1 1 h 13.762 c 0.553 0 1 -0.447 1 -1 V 43.316 h 16.04 V 85.804 z M 88 41.316 h -2.178 h -18.04 h -2.178 v -5.463 H 88 V 41.316 z" style="stroke: none; stroke-width: 1; stroke-dasharray: none; stroke-linecap: butt; stroke-linejoin: miter; stroke-miterlimit: 10; fill: rgb(255,255,255); fill-rule: nonzero; opacity: 1;" transform=" matrix(1 0 0 1 0 0) " stroke-linecap="round" />
</g>
</svg>