<svg xmlns="http://www.w3.org/2000/svg" xmlns:xlink="http://www.w3.org/1999/xlink" version="1.1" width="256" height="256" viewBox="0 0 256 256" xml:space="preserve">

<defs>
</defs>
<g style="stroke: none; stroke-width: 0; stroke-dasharray: none; stroke-linecap: butt; stroke-linejoin: miter; stroke-miterlimit: 10; fill: none; fill-rule: nonzero; opacity: 1;" transform="translate(1.4065934065934016 1.4065934065934016) scale(2.81 2.81)" >
	<path d="M 89 79.854 H 1 c -0.292 0 -0.569 -0.128 -0.759 -0.349 c -0.19 -0.222 -0.273 -0.516 -0.229 -0.804 c 1.41 -9.146 5.534 -17.548 11.926 -24.3 c 0.379 -0.401 1.014 -0.417 1.414 -0.039 c 0.401 0.38 0.418 1.013 0.039 1.414 c -5.841 6.17 -9.702 13.782 -11.208 22.077 h 85.637 c -3.609 -19.843 -20.619 -34.754 -40.881 -35.642 c -3.68 -0.164 -7.44 0.145 -11.043 0.912 c -0.235 0.05 -0.47 0.102 -0.704 0.156 c -0.539 0.119 -1.075 -0.211 -1.199 -0.75 c -0.124 -0.538 0.212 -1.075 0.75 -1.199 c 0.245 -0.056 0.491 -0.111 0.737 -0.163 c 3.769 -0.802 7.702 -1.122 11.548 -0.954 c 21.602 0.946 39.671 17.132 42.963 38.488 c 0.045 0.288 -0.039 0.582 -0.229 0.804 C 89.569 79.726 89.292 79.854 89 79.854 z" style="stroke: none; stroke-width: 1; stroke-dasharray: none; stroke-linecap: butt; stroke-linejoin: miter; stroke-miterlimit: 10; fill: rgb(255,255,255); fill-rule: nonzero; opacity: 1;" transform=" matrix(1 0 0 1 0 0) " stroke-linecap="round" />
	<path d="M 28.862 79.854 c -0.044 0 -0.088 -0.003 -0.133 -0.009 c -0.547 -0.072 -0.933 -0.575 -0.86 -1.122 c 1.18 -8.912 6.143 -16.248 15.171 -22.428 c 2.432 -1.542 3.541 -3.156 3.326 -4.816 c -0.43 -3.315 -5.979 -6.792 -10.982 -8.379 l 0.604 -1.908 c 4.285 1.36 11.71 5.003 12.361 10.031 c 0.323 2.498 -1.093 4.767 -4.209 6.742 c -8.622 5.902 -13.171 12.588 -14.289 21.02 C 29.786 79.487 29.356 79.854 28.862 79.854 z" style="stroke: none; stroke-width: 1; stroke-dasharray: none; stroke-linecap: butt; stroke-linejoin: miter; stroke-miterlimit: 10; fill: rgb(255,255,255); fill-rule: nonzero; opacity: 1;" transform=" matrix(1 0 0 1 0 0) " stroke-linecap="round" />
	<path d="M 61.14 79.715 c -0.235 0 -0.471 -0.082 -0.66 -0.249 c -5.095 -4.483 -6.27 -10.777 -3.592 -19.241 c 0.01 -0.032 0.021 -0.063 0.035 -0.095 c 1.365 -3.165 1.495 -6.147 0.385 -8.864 c -2.032 -4.971 -7.578 -7.852 -10.704 -9.127 c -0.511 -0.208 -0.757 -0.792 -0.548 -1.304 s 0.793 -0.757 1.304 -0.548 c 3.416 1.394 9.491 4.575 11.799 10.222 c 1.316 3.219 1.188 6.706 -0.379 10.366 c -2.428 7.709 -1.468 13.14 3.021 17.089 c 0.415 0.365 0.455 0.997 0.091 1.411 C 61.692 79.6 61.417 79.715 61.14 79.715 z" style="stroke: none; stroke-width: 1; stroke-dasharray: none; stroke-linecap: butt; stroke-linejoin: miter; stroke-miterlimit: 10; fill: rgb(255,255,255); fill-rule: nonzero; opacity: 1;" transform=" matrix(1 0 0 1 0 0) " stroke-linecap="round" />
	<path d="M 34.104 56.089 H 10.936 c -1.583 0 -3.071 -0.774 -3.98 -2.071 c -0.908 -1.297 -1.127 -2.959 -0.586 -4.447 l 11.583 -31.872 c 0.707 -1.943 2.499 -3.199 4.567 -3.199 c 0 0 0 0 0 0 c 2.067 0 3.86 1.256 4.566 3.199 L 38.67 49.57 l 0 0 c 0.541 1.488 0.321 3.151 -0.587 4.447 C 37.174 55.314 35.687 56.089 34.104 56.089 z M 22.52 16.5 c -0.968 0 -2.183 0.495 -2.687 1.882 L 8.249 50.254 c -0.323 0.889 -0.197 1.842 0.345 2.616 c 0.542 0.774 1.396 1.219 2.342 1.219 h 23.168 c 0.945 0 1.799 -0.444 2.341 -1.219 s 0.668 -1.728 0.345 -2.616 L 25.206 18.382 C 24.702 16.994 23.488 16.5 22.52 16.5 z" style="stroke: none; stroke-width: 1; stroke-dasharray: none; stroke-linecap: butt; stroke-linejoin: miter; stroke-miterlimit: 10; fill: rgb(255,255,255); fill-rule: nonzero; opacity: 1;" transform=" matrix(1 0 0 1 0 0) " stroke-linecap="round" />
	<path d="M 22.52 68.984 c -0.552 0 -1 -0.447 -1 -1 v -31.29 c 0 -0.552 0.448 -1 1 -1 s 1 0.448 1 1 v 31.29 C 23.52 68.537 23.072 68.984 22.52 68.984 z" style="stroke: none; stroke-width: 1; stroke-dasharray: none; stroke-linecap: butt; stroke-linejoin: miter; stroke-miterlimit: 10; fill: rgb(255,255,255); fill-rule: nonzero; opacity: 1;" transform=" matrix(1 0 0 1 0 0) " stroke-linecap="round" />
	<path d="M 22.52 50.998 c -0.256 0 -0.512 -0.098 -0.707 -0.293 c -0.391 -0.391 -0.391 -1.023 0 -1.414 l 3.784 -3.784 c 0.391 -0.391 1.023 -0.391 1.414 0 s 0.391 1.023 0 1.414 l -3.784 3.784 C 23.031 50.9 22.775 50.998 22.52 50.998 z" style="stroke: none; stroke-width: 1; stroke-dasharray: none; stroke-linecap: butt; stroke-linejoin: miter; stroke-miterlimit: 10; fill: rgb(255,255,255); fill-rule: nonzero; opacity: 1;" transform=" matrix(1 0 0 1 0 0) " stroke-linecap="round" />
	<path d="M 22.52 46.662 c -0.256 0 -0.512 -0.098 -0.707 -0.293 l -3.784 -3.784 c -0.391 -0.391 -0.391 -1.023 0 -1.414 s 1.023 -0.391 1.414 0 l 3.784 3.784 c 0.391 0.391 0.391 1.023 0 1.414 C 23.031 46.564 22.775 46.662 22.52 46.662 z" style="stroke: none; stroke-width: 1; stroke-dasharray: none; stroke-linecap: butt; stroke-linejoin: miter; stroke-miterlimit: 10; fill: rgb(255,255,255); fill-rule: nonzero; opacity: 1;" transform=" matrix(1 0 0 1 0 0) " stroke-linecap="round" />
	<path d="M 73.599 38.566 H 58.138 c -1.165 0 -2.26 -0.57 -2.929 -1.524 c -0.668 -0.954 -0.83 -2.177 -0.432 -3.272 l 7.73 -21.27 c 0.52 -1.43 1.839 -2.354 3.36 -2.354 c 0 0 0 0 0.001 0 c 1.521 0 2.84 0.924 3.358 2.354 l 7.73 21.27 c 0.398 1.095 0.237 2.318 -0.432 3.273 C 75.858 37.997 74.764 38.566 73.599 38.566 z M 65.868 12.146 c -0.534 0 -1.203 0.272 -1.481 1.037 l -7.73 21.27 c -0.178 0.489 -0.108 1.015 0.19 1.441 c 0.3 0.427 0.77 0.672 1.291 0.672 h 15.461 c 0.521 0 0.991 -0.245 1.29 -0.671 c 0.299 -0.426 0.368 -0.952 0.19 -1.441 l 0 0 l -7.73 -21.27 C 67.07 12.419 66.401 12.146 65.868 12.146 L 65.868 12.146 z" style="stroke: none; stroke-width: 1; stroke-dasharray: none; stroke-linecap: butt; stroke-linejoin: miter; stroke-miterlimit: 10; fill: rgb(255,255,255); fill-rule: nonzero; opacity: 1;" transform=" matrix(1 0 0 1 0 0) " stroke-linecap="round" />
	<path d="M 65.868 47.354 c -0.553 0 -1 -0.447 -1 -1 V 25.291 c 0 -0.552 0.447 -1 1 -1 s 1 0.448 1 1 v 21.063 C 66.868 46.906 66.421 47.354 65.868 47.354 z" style="stroke: none; stroke-width: 1; stroke-dasharray: none; stroke-linecap: butt; stroke-linejoin: miter; stroke-miterlimit: 10; fill: rgb(255,255,255); fill-rule: nonzero; opacity: 1;" transform=" matrix(1 0 0 1 0 0) " stroke-linecap="round" />
	<path d="M 65.868 35.169 c -0.256 0 -0.512 -0.098 -0.707 -0.293 c -0.391 -0.391 -0.391 -1.023 0 -1.414 l 2.525 -2.525 c 0.391 -0.391 1.023 -0.391 1.414 0 s 0.391 1.023 0 1.414 l -2.525 2.525 C 66.38 35.072 66.124 35.169 65.868 35.169 z" style="stroke: none; stroke-width: 1; stroke-dasharray: none; stroke-linecap: butt; stroke-linejoin: miter; stroke-miterlimit: 10; fill: rgb(255,255,255); fill-rule: nonzero; opacity: 1;" transform=" matrix(1 0 0 1 0 0) " stroke-linecap="round" />
	<path d="M 65.868 32.275 c -0.256 0 -0.512 -0.098 -0.707 -0.293 l -2.525 -2.525 c -0.391 -0.391 -0.391 -1.023 0 -1.414 s 1.023 -0.391 1.414 0 l 2.525 2.525 c 0.391 0.391 0.391 1.023 0 1.414 C 66.38 32.178 66.124 32.275 65.868 32.275 z" style="stroke: none; stroke-width: 1; stroke-dasharray: none; stroke-linecap: butt; stroke-linejoin: miter; stroke-miterlimit: 10; fill: rgb(255,255,255); fill-rule: nonzero; opacity: 1;" transform=" matrix(1 0 0 1 0 0) " stroke-linecap="round" />
	<path d="M 81.053 70.665 H 62.14 c -0.29 0 -0.566 -0.126 -0.757 -0.346 c -0.189 -0.22 -0.274 -0.512 -0.232 -0.799 c 0.298 -2.039 1.957 -3.617 3.964 -3.858 c 0.701 -1.665 2.328 -2.772 4.189 -2.772 c 0.397 0 0.788 0.052 1.169 0.154 c 0.855 -0.966 2.075 -1.523 3.396 -1.523 c 2.058 0 3.806 1.349 4.366 3.252 c 2.173 0.343 3.84 2.229 3.84 4.497 c 0 0.169 -0.011 0.336 -0.028 0.5 C 81.994 70.278 81.564 70.665 81.053 70.665 z M 63.604 68.665 h 16.398 c -0.276 -1.133 -1.31 -1.937 -2.532 -1.947 c -0.515 0 -1.01 -0.384 -1.061 -0.897 c -0.129 -1.311 -1.222 -2.3 -2.541 -2.3 c -0.898 0 -1.715 0.462 -2.183 1.235 c -0.266 0.439 -0.818 0.605 -1.285 0.386 c -0.351 -0.167 -0.72 -0.252 -1.098 -0.252 c -1.193 0 -2.215 0.813 -2.484 1.976 c -0.111 0.477 -0.554 0.802 -1.035 0.772 L 65.65 67.63 C 64.825 67.63 64.074 68.034 63.604 68.665 z" style="stroke: none; stroke-width: 1; stroke-dasharray: none; stroke-linecap: butt; stroke-linejoin: miter; stroke-miterlimit: 10; fill: rgb(255,255,255); fill-rule: nonzero; opacity: 1;" transform=" matrix(1 0 0 1 0 0) " stroke-linecap="round" />
</g>
</svg>