<svg xmlns="http://www.w3.org/2000/svg" xmlns:xlink="http://www.w3.org/1999/xlink" version="1.1" width="256" height="256" viewBox="0 0 256 256" xml:space="preserve">

<defs>
</defs>
<g style="stroke: none; stroke-width: 0; stroke-dasharray: none; stroke-linecap: butt; stroke-linejoin: miter; stroke-miterlimit: 10; fill: none; fill-rule: nonzero; opacity: 1;" transform="translate(1.4065934065934016 1.4065934065934016) scale(2.81 2.81)" >
	<path d="M 29.644 57.059 c -0.552 0 -1 -0.447 -1 -1 V 24.723 c 0 -6.309 5.133 -11.441 11.441 -11.441 c 0.552 0 1 0.448 1 1 s -0.448 1 -1 1 c -5.206 0 -9.441 4.235 -9.441 9.441 v 31.335 C 30.644 56.611 30.196 57.059 29.644 57.059 z" style="stroke: none; stroke-width: 1; stroke-dasharray: none; stroke-linecap: butt; stroke-linejoin: miter; stroke-miterlimit: 10; fill: rgb(255,255,255); fill-rule: nonzero; opacity: 1;" transform=" matrix(1 0 0 1 0 0) " stroke-linecap="round" />
	<path d="M 60.645 57.059 c -0.553 0 -1 -0.447 -1 -1 V 24.723 c 0 -6.309 5.133 -11.441 11.441 -11.441 c 0.553 0 1 0.448 1 1 s -0.447 1 -1 1 c -5.206 0 -9.441 4.235 -9.441 9.441 v 31.335 C 61.645 56.611 61.197 57.059 60.645 57.059 z" style="stroke: none; stroke-width: 1; stroke-dasharray: none; stroke-linecap: butt; stroke-linejoin: miter; stroke-miterlimit: 10; fill: rgb(255,255,255); fill-rule: nonzero; opacity: 1;" transform=" matrix(1 0 0 1 0 0) " stroke-linecap="round" />
	<path d="M 60.645 48.55 h -31 c -0.552 0 -1 -0.447 -1 -1 s 0.448 -1 1 -1 h 31 c 0.553 0 1 0.447 1 1 S 61.197 48.55 60.645 48.55 z" style="stroke: none; stroke-width: 1; stroke-dasharray: none; stroke-linecap: butt; stroke-linejoin: miter; stroke-miterlimit: 10; fill: rgb(255,255,255); fill-rule: nonzero; opacity: 1;" transform=" matrix(1 0 0 1 0 0) " stroke-linecap="round" />
	<path d="M 60.645 32.55 h -31 c -0.552 0 -1 -0.448 -1 -1 s 0.448 -1 1 -1 h 31 c 0.553 0 1 0.448 1 1 S 61.197 32.55 60.645 32.55 z" style="stroke: none; stroke-width: 1; stroke-dasharray: none; stroke-linecap: butt; stroke-linejoin: miter; stroke-miterlimit: 10; fill: rgb(255,255,255); fill-rule: nonzero; opacity: 1;" transform=" matrix(1 0 0 1 0 0) " stroke-linecap="round" />
	<path d="M 27.4 76.749 c -3.17 0.001 -6.34 -1.49 -9.488 -4.474 c -5.459 -5.171 -10.766 -5.171 -16.225 0 c -0.4 0.381 -1.032 0.364 -1.414 -0.038 c -0.38 -0.4 -0.363 -1.033 0.039 -1.413 c 6.294 -5.964 12.68 -5.966 18.975 0 c 5.458 5.171 10.766 5.173 16.225 0 c 6.296 -5.965 12.68 -5.965 18.975 0 c 5.458 5.171 10.766 5.173 16.226 0 c 6.295 -5.965 12.68 -5.965 18.975 0 c 0.401 0.38 0.418 1.013 0.038 1.413 c -0.38 0.402 -1.013 0.419 -1.413 0.038 c -5.459 -5.17 -10.766 -5.17 -16.225 0 c -6.294 5.964 -12.68 5.966 -18.976 0 c -5.459 -5.17 -10.765 -5.172 -16.225 0 C 33.741 75.258 30.57 76.749 27.4 76.749 z" style="stroke: none; stroke-width: 1; stroke-dasharray: none; stroke-linecap: butt; stroke-linejoin: miter; stroke-miterlimit: 10; fill: rgb(255,255,255); fill-rule: nonzero; opacity: 1;" transform=" matrix(1 0 0 1 0 0) " stroke-linecap="round" />
	<path d="M 27.4 66.749 c -3.17 0.001 -6.34 -1.49 -9.488 -4.474 c -5.459 -5.171 -10.766 -5.171 -16.225 0 c -0.4 0.381 -1.032 0.364 -1.414 -0.038 c -0.38 -0.4 -0.363 -1.033 0.039 -1.413 c 6.294 -5.965 12.68 -5.965 18.975 0 c 5.458 5.171 10.766 5.173 16.225 0 c 6.296 -5.965 12.68 -5.965 18.975 0 c 5.458 5.171 10.766 5.173 16.226 0 c 6.295 -5.965 12.68 -5.965 18.975 0 c 0.401 0.38 0.418 1.013 0.038 1.413 c -0.38 0.402 -1.013 0.419 -1.413 0.038 c -5.459 -5.17 -10.766 -5.17 -16.225 0 c -6.294 5.964 -12.68 5.966 -18.976 0 c -5.459 -5.17 -10.765 -5.172 -16.225 0 C 33.741 65.258 30.57 66.749 27.4 66.749 z" style="stroke: none; stroke-width: 1; stroke-dasharray: none; stroke-linecap: butt; stroke-linejoin: miter; stroke-miterlimit: 10; fill: rgb(255,255,255); fill-rule: nonzero; opacity: 1;" transform=" matrix(1 0 0 1 0 0) " stroke-linecap="round" />
</g>
</svg>